<?xml version="1.0" encoding="iso-8859-1"?>
<!-- Generator: Adobe Illustrator 19.0.0, SVG Export Plug-In . SVG Version: 6.00 Build 0)  -->
<svg version="1.1" id="Layer_1" xmlns="http://www.w3.org/2000/svg" xmlns:xlink="http://www.w3.org/1999/xlink" x="0px" y="0px"
	 viewBox="0 0 512 512" style="enable-background:new 0 0 512 512;" xml:space="preserve">
<g>
	<g>
		<g>
			<path d="M430.411,77.572c-3.004-3.33-8.137-3.593-11.466-0.589c-3.329,3.004-3.593,8.137-0.589,11.466
				c36.278,40.207,56.257,92.199,56.257,146.402c0,83.592-46.545,158.65-121.472,195.881c-1.705,0.848-3.058,2.268-3.822,4.012
				c-16.249,37.069-52.879,61.02-93.319,61.02c-40.439,0-77.068-23.952-93.319-61.022c-0.764-1.744-2.117-3.163-3.822-4.01
				C83.932,393.497,37.386,318.441,37.386,234.85c0-120.543,98.069-218.613,218.613-218.613c52.86,0,103.881,19.115,143.661,53.825
				c3.378,2.946,8.507,2.599,11.455-0.78c2.946-3.378,2.598-8.506-0.78-11.455C367.597,20.537,312.786,0,255.999,0
				c-62.73,0-121.707,24.429-166.062,68.786C45.579,113.142,21.151,172.12,21.151,234.85c0,44.554,12.535,87.912,36.249,125.389
				c22.552,35.639,54.192,64.534,91.634,83.721C168.442,485.39,210.106,512,255.999,512c45.896,0,87.558-26.609,106.967-68.04
				c37.442-19.186,69.082-48.083,91.634-83.721c23.714-37.476,36.249-80.835,36.249-125.389
				C490.849,176.622,469.385,120.766,430.411,77.572z"/>
			<path d="M339.793,323.194c23.304,0,47.404-13.064,64.466-34.947c12.648-16.219,19.787-35.288,20.1-53.691
				c0.328-19.264-6.777-35.555-20.009-45.872c-8.885-6.928-19.972-10.59-32.065-10.59c-23.308,0-47.408,13.064-64.47,34.948
				c-26.639,34.163-26.68,78.826-0.092,99.561c8.884,6.928,19.972,10.59,32.065,10.591H339.793z M317.708,299.798
				c-19.53-15.228-18.224-49.668,2.911-76.773c13.8-17.699,33.597-28.695,51.665-28.695c8.441,0,16.078,2.474,22.08,7.156
				c9.112,7.104,13.998,18.75,13.759,32.792c-0.252,14.903-6.173,30.523-16.67,43.983c-13.801,17.7-33.598,28.696-51.664,28.695
				C331.348,306.955,323.712,304.481,317.708,299.798z"/>
			<path d="M204.186,213.043c-17.063-21.885-41.165-34.949-64.472-34.949c-12.093,0-23.181,3.662-32.068,10.59
				c-26.589,20.737-26.547,65.4,0.093,99.563c17.063,21.883,41.163,34.947,64.47,34.948c0.002,0,0.001,0,0.002,0
				c12.091,0,23.181-3.663,32.065-10.591C230.864,291.87,230.823,247.207,204.186,213.043z M194.292,299.799
				c-6.005,4.683-13.641,7.158-22.081,7.158h-0.001c-18.068-0.001-37.865-10.996-51.665-28.696
				c-21.136-27.104-22.443-61.545-2.913-76.774c6.005-4.683,13.642-7.157,22.083-7.157c18.068,0,37.866,10.996,51.665,28.696
				C212.514,250.131,213.82,284.571,194.292,299.799z"/>
			<path d="M255.999,435.976c30.533,0,56.212-22.85,59.734-53.148c0.267-2.301-0.461-4.606-2.003-6.336
				c-1.54-1.73-3.746-2.719-6.063-2.719H204.334c-2.316,0-4.522,0.989-6.063,2.719c-1.541,1.729-2.27,4.034-2.003,6.336
				C199.789,413.128,225.468,435.976,255.999,435.976z M297.567,390.009c-5.926,17.452-22.444,29.73-41.568,29.73
				c-19.124,0-35.639-12.276-41.566-29.73H297.567z"/>
		</g>
	</g>
</g>
<g>
</g>
<g>
</g>
<g>
</g>
<g>
</g>
<g>
</g>
<g>
</g>
<g>
</g>
<g>
</g>
<g>
</g>
<g>
</g>
<g>
</g>
<g>
</g>
<g>
</g>
<g>
</g>
<g>
</g>
</svg>
